<?xml version="1.0" encoding="utf-8"?>
<!-- Generator: Adobe Illustrator 24.1.3, SVG Export Plug-In . SVG Version: 6.00 Build 0)  -->
<svg version="1.1" id="Layer_1" xmlns="http://www.w3.org/2000/svg" xmlns:xlink="http://www.w3.org/1999/xlink" x="0px" y="0px"
	 viewBox="0 0 108 108" style="enable-background:new 0 0 108 108;" xml:space="preserve">
<style type="text/css">
	.st0{opacity:9.999999e-02;}
	.st1{fill-rule:evenodd;clip-rule:evenodd;}
	.st2{fill-rule:evenodd;clip-rule:evenodd;fill:#058B82;}
	.st3{filter:url(#Adobe_OpacityMaskFilter);}
	.st4{fill-rule:evenodd;clip-rule:evenodd;fill:#FFFFFF;}
	.st5{mask:url(#mask-2_1_);}
	.st6{filter:url(#Adobe_OpacityMaskFilter_1_);}
	.st7{mask:url(#mask-6_1_);fill-rule:evenodd;clip-rule:evenodd;fill:#25BA74;}
	.st8{fill-rule:evenodd;clip-rule:evenodd;fill:#0E7D49;}
	.st9{fill-rule:evenodd;clip-rule:evenodd;fill:#25BA74;}
	.st10{filter:url(#Adobe_OpacityMaskFilter_2_);}
	.st11{mask:url(#mask-2_2_);}
	.st12{filter:url(#Adobe_OpacityMaskFilter_3_);}
	.st13{mask:url(#mask-2_3_);fill-rule:evenodd;clip-rule:evenodd;fill:#9F4EE3;}
	.st14{filter:url(#Adobe_OpacityMaskFilter_4_);}
	.st15{mask:url(#mask-2_4_);fill-rule:evenodd;clip-rule:evenodd;fill:#DA6267;}
	.st16{filter:url(#Adobe_OpacityMaskFilter_5_);}
	.st17{mask:url(#mask-2_5_);}
	.st18{opacity:0.4;fill-rule:evenodd;clip-rule:evenodd;fill:#FFFFFF;enable-background:new    ;}
	.st19{fill:#FFFFFF;}
	.st20{filter:url(#Adobe_OpacityMaskFilter_6_);}
	.st21{opacity:0.5;mask:url(#mask-2_6_);}
	.st22{opacity:0.2;fill-rule:evenodd;clip-rule:evenodd;fill:url(#Fill-6_4_);enable-background:new    ;}
	.st23{opacity:0.5;fill-rule:evenodd;clip-rule:evenodd;fill:url(#Fill-7_3_);enable-background:new    ;}
	.st24{opacity:0.2;fill-rule:evenodd;clip-rule:evenodd;fill:url(#Fill-8_4_);enable-background:new    ;}
	.st25{filter:url(#Adobe_OpacityMaskFilter_7_);}
	.st26{opacity:0.5;mask:url(#mask-2_7_);}
	.st27{opacity:0.2;fill-rule:evenodd;clip-rule:evenodd;fill:url(#Fill-6_5_);enable-background:new    ;}
	.st28{opacity:0.3;fill-rule:evenodd;clip-rule:evenodd;fill:url(#Fill-7_4_);enable-background:new    ;}
	.st29{opacity:0.3;fill-rule:evenodd;clip-rule:evenodd;fill:url(#Fill-8_5_);enable-background:new    ;}
	.st30{filter:url(#Adobe_OpacityMaskFilter_8_);}
	.st31{opacity:0.5;mask:url(#mask-2_8_);}
	.st32{opacity:0.2;fill-rule:evenodd;clip-rule:evenodd;fill:url(#Fill-6_6_);enable-background:new    ;}
	.st33{opacity:0.2;fill-rule:evenodd;clip-rule:evenodd;fill:url(#Fill-7_5_);enable-background:new    ;}
	.st34{opacity:0.2;fill-rule:evenodd;clip-rule:evenodd;fill:url(#Fill-8_6_);enable-background:new    ;}
	.st35{filter:url(#Adobe_OpacityMaskFilter_9_);}
	.st36{mask:url(#mask-2_9_);}
	.st37{fill-rule:evenodd;clip-rule:evenodd;fill:#EF1D45;}
	.st38{filter:url(#Adobe_OpacityMaskFilter_10_);}
	.st39{mask:url(#mask-2_10_);fill-rule:evenodd;clip-rule:evenodd;fill:#F5CB1C;}
	.st40{filter:url(#Adobe_OpacityMaskFilter_11_);}
	.st41{mask:url(#mask-2_11_);}
</style>
<g id="Test-Series-web">
	<g id="Home_Test-Series_Exam-Copy-6" transform="translate(-334.000000, -857.000000)">
		<g id="Group-9" transform="translate(334.000000, 857.000000)">
			<g id="Mask" class="st0">
				<g>
					<path id="path-1_1_" class="st1" d="M16,0h76c8.8,0,16,7.2,16,16v76c0,8.8-7.2,16-16,16H16c-8.8,0-16-7.2-16-16V16
						C0,7.2,7.2,0,16,0z"/>
				</g>
				<g>
					<path id="path-1_2_" class="st2" d="M16,0h76c8.8,0,16,7.2,16,16v76c0,8.8-7.2,16-16,16H16c-8.8,0-16-7.2-16-16V16
						C0,7.2,7.2,0,16,0z"/>
				</g>
			</g>
			<defs>
				<filter id="Adobe_OpacityMaskFilter" filterUnits="userSpaceOnUse" x="7" y="65.5" width="31.5" height="31.5">
					<feColorMatrix  type="matrix" values="1 0 0 0 0  0 1 0 0 0  0 0 1 0 0  0 0 0 1 0"/>
				</filter>
			</defs>
			<mask maskUnits="userSpaceOnUse" x="7" y="65.5" width="31.5" height="31.5" id="mask-2_1_">
				<g class="st3">
					<path id="path-1_3_" class="st4" d="M16,0h76c8.8,0,16,7.2,16,16v76c0,8.8-7.2,16-16,16H16c-8.8,0-16-7.2-16-16V16
						C0,7.2,7.2,0,16,0z"/>
				</g>
			</mask>
			<g id="Group-12" class="st5">
				<g transform="translate(7.000000, 65.000000)">
					<g id="Group-3" transform="translate(0.000000, 0.047750)">
						<g id="Clip-2">
						</g>
						<defs>
							<filter id="Adobe_OpacityMaskFilter_1_" filterUnits="userSpaceOnUse" x="0" y="0.5" width="5.9" height="10.9">
								<feColorMatrix  type="matrix" values="1 0 0 0 0  0 1 0 0 0  0 0 1 0 0  0 0 0 1 0"/>
							</filter>
						</defs>
						<mask maskUnits="userSpaceOnUse" x="0" y="0.5" width="5.9" height="10.9" id="mask-6_1_">
							<g class="st6">
								<polygon id="path-5_1_" class="st4" points="0,0.5 5.9,0.5 5.9,11.3 0,11.3 								"/>
							</g>
						</mask>
						<path id="Fill-1" class="st7" d="M1.3,7.7l4.5,3.6c-0.2-0.1-0.3-0.3-0.5-0.5C4.5,9.7,4.5,7.9,4.6,6.6C4.8,5.2,5.1,4.1,5.1,4
							L0.6,0.5c0,0-0.4,1.2-0.5,2.6c-0.1,1.3-0.1,3.1,0.8,4.2C1,7.5,1.2,7.6,1.3,7.7"/>
					</g>
					<path id="Fill-4" class="st8" d="M1.3,7.8l4.5,3.6c1.1,0.9,2.9,0.9,5.4,0.2c0.9-0.3,1.9-0.7,2.8-1c2.7-1.1,5.5-2.2,6.9-1
						l-4.5-3.6c-1.4-1.1-4.2,0-6.9,1C8.6,7.3,7.6,7.7,6.7,8C4.3,8.7,2.4,8.7,1.3,7.8"/>
					<path id="Fill-6" class="st9" d="M15.9,21.6l4.5,3.6c0,0-0.1-0.1-0.1-0.1c-0.7-0.8-0.7-2.6,0.3-5.6c1.6-5.4,1.9-8.6,0.7-9.9
						c-0.1-0.1-0.1-0.1-0.2-0.2l-4.5-3.6c0.1,0.1,0.1,0.1,0.2,0.2c1.2,1.3,1,4.5-0.7,9.9c-0.9,3-1,4.8-0.3,5.6
						C15.8,21.6,15.8,21.6,15.9,21.6"/>
					<path id="Fill-8" class="st8" d="M15.9,21.6l4.5,3.6c1,0.8,3.2-0.1,5.3-1c2.1-0.9,4.2-1.8,5.2-1l-4.5-3.6c-1-0.8-3.1,0.1-5.2,1
						C19.1,21.6,16.9,22.5,15.9,21.6"/>
					<path id="Fill-10" class="st9" d="M27,28.5l4.5,3.6c-0.8-0.6-0.9-2.3-0.2-5.3c0.4-1.8,0.3-2.9-0.3-3.4c0,0,0,0,0,0l-4.5-3.6
						c0,0,0,0,0,0c0.6,0.5,0.7,1.6,0.3,3.4C26.1,26.2,26.2,27.8,27,28.5"/>
				</g>
			</g>
			<defs>
				<filter id="Adobe_OpacityMaskFilter_2_" filterUnits="userSpaceOnUse" x="46" y="9" width="74" height="90">
					<feColorMatrix  type="matrix" values="1 0 0 0 0  0 1 0 0 0  0 0 1 0 0  0 0 0 1 0"/>
				</filter>
			</defs>
			<mask maskUnits="userSpaceOnUse" x="46" y="9" width="74" height="90" id="mask-2_2_">
				<g class="st10">
					<path id="path-1_4_" class="st4" d="M16,0h76c8.8,0,16,7.2,16,16v76c0,8.8-7.2,16-16,16H16c-8.8,0-16-7.2-16-16V16
						C0,7.2,7.2,0,16,0z"/>
				</g>
			</mask>
			<g id="Mask_1_" class="st11">
				<g>
					<path id="path-7" class="st1" d="M61.4,9h43.2c5.3,0,7.3,0.6,9.2,1.6c2,1,3.5,2.6,4.5,4.5c1,2,1.6,3.9,1.6,9.2v59.2
						c0,5.3-0.6,7.3-1.6,9.2c-1,2-2.6,3.5-4.5,4.5c-2,1-3.9,1.6-9.2,1.6H61.4c-5.3,0-7.3-0.6-9.2-1.6c-2-1-3.5-2.6-4.5-4.5
						c-1-2-1.6-3.9-1.6-9.2V24.4c0-5.3,0.6-7.3,1.6-9.2c1-2,2.6-3.5,4.5-4.5C54.1,9.6,56,9,61.4,9z"/>
				</g>
				<g>
					<path id="path-7_1_" class="st4" d="M61.4,9h43.2c5.3,0,7.3,0.6,9.2,1.6c2,1,3.5,2.6,4.5,4.5c1,2,1.6,3.9,1.6,9.2v59.2
						c0,5.3-0.6,7.3-1.6,9.2c-1,2-2.6,3.5-4.5,4.5c-2,1-3.9,1.6-9.2,1.6H61.4c-5.3,0-7.3-0.6-9.2-1.6c-2-1-3.5-2.6-4.5-4.5
						c-1-2-1.6-3.9-1.6-9.2V24.4c0-5.3,0.6-7.3,1.6-9.2c1-2,2.6-3.5,4.5-4.5C54.1,9.6,56,9,61.4,9z"/>
				</g>
			</g>
			<defs>
				<filter id="Adobe_OpacityMaskFilter_3_" filterUnits="userSpaceOnUse" x="42.8" y="70.3" width="8.6" height="10.8">
					<feColorMatrix  type="matrix" values="1 0 0 0 0  0 1 0 0 0  0 0 1 0 0  0 0 0 1 0"/>
				</filter>
			</defs>
			<mask maskUnits="userSpaceOnUse" x="42.8" y="70.3" width="8.6" height="10.8" id="mask-2_3_">
				<g class="st12">
					<path id="path-1_5_" class="st4" d="M16,0h76c8.8,0,16,7.2,16,16v76c0,8.8-7.2,16-16,16H16c-8.8,0-16-7.2-16-16V16
						C0,7.2,7.2,0,16,0z"/>
				</g>
			</mask>
			<path id="Fill-1_1_" class="st13" d="M42.8,75c1.7,0.7,3.2,2,5,6.1c1.6-1.1,2.7-2.5,3.6-4.7c-1.8-2.8-3.1-4.4-5.9-6.1
				C45.1,72.2,44.4,73.2,42.8,75"/>
			<defs>
				<filter id="Adobe_OpacityMaskFilter_4_" filterUnits="userSpaceOnUse" x="7.6" y="34.2" width="8.6" height="10.8">
					<feColorMatrix  type="matrix" values="1 0 0 0 0  0 1 0 0 0  0 0 1 0 0  0 0 0 1 0"/>
				</filter>
			</defs>
			<mask maskUnits="userSpaceOnUse" x="7.6" y="34.2" width="8.6" height="10.8" id="mask-2_4_">
				<g class="st14">
					<path id="path-1_6_" class="st4" d="M16,0h76c8.8,0,16,7.2,16,16v76c0,8.8-7.2,16-16,16H16c-8.8,0-16-7.2-16-16V16
						C0,7.2,7.2,0,16,0z"/>
				</g>
			</mask>
			<path id="Fill-1-Copy" class="st15" d="M16.2,40.3c-1.7-0.7-3.2-2-5-6.1c-1.6,1.1-2.7,2.5-3.6,4.7c1.8,2.8,3.1,4.4,5.9,6.1
				C13.9,43.1,14.6,42.1,16.2,40.3"/>
			<defs>
				<filter id="Adobe_OpacityMaskFilter_5_" filterUnits="userSpaceOnUse" x="35" y="40" width="67" height="15.3">
					<feColorMatrix  type="matrix" values="1 0 0 0 0  0 1 0 0 0  0 0 1 0 0  0 0 0 1 0"/>
				</filter>
			</defs>
			<mask maskUnits="userSpaceOnUse" x="35" y="40" width="67" height="15.3" id="mask-2_5_">
				<g class="st16">
					<path id="path-1_7_" class="st4" d="M16,0h76c8.8,0,16,7.2,16,16v76c0,8.8-7.2,16-16,16H16c-8.8,0-16-7.2-16-16V16
						C0,7.2,7.2,0,16,0z"/>
				</g>
			</mask>
			<g id="Group-17" class="st17">
				<g transform="translate(35.000000, 40.027338)">
					<g id="Fill-1_2_">
						<g>
							<path id="path-9" class="st1" d="M0,15.3V5c0-2.8,2.8-5,6.3-5h54.5C64.2,0,67,2.3,67,5v5.3c0,2.8-2.8,5-6.3,5H0z"/>
						</g>
						<g>
							<path id="path-9_1_" class="st9" d="M0,15.3V5c0-2.8,2.8-5,6.3-5h54.5C64.2,0,67,2.3,67,5v5.3c0,2.8-2.8,5-6.3,5H0z"/>
						</g>
					</g>
					<path id="Fill-3" class="st4" d="M15.4,7.6h41.4c0.7,0,1.2-0.5,1.2-1.2s-0.5-1.2-1.2-1.2H15.4c-0.7,0-1.2,0.5-1.2,1.2
						S14.7,7.6,15.4,7.6z"/>
					<path id="Fill-5" class="st18" d="M15.4,11.2h13c0.7,0,1.2-0.5,1.2-1.2c0-0.7-0.5-1.2-1.2-1.2h-13c-0.7,0-1.2,0.5-1.2,1.2
						C14.2,10.7,14.7,11.2,15.4,11.2z"/>
					<path id="B" class="st19" d="M8,11.9c1.6,0,2.7-1,2.7-2.3c0-1-0.7-1.6-1.2-1.8c0.5-0.2,1-0.8,1-1.7c0-1-0.7-2-2.6-2H4.5v7.7H8z
						 M7.7,7.2H6.2V5.5h1.6c0.6,0,1.1,0.3,1.1,0.9C8.8,6.9,8.5,7.2,7.7,7.2z M7.7,10.6H6.2V8.5h1.5c0.9,0,1.3,0.4,1.3,1
						C9,10.2,8.6,10.6,7.7,10.6z"/>
				</g>
			</g>
			<defs>
				<filter id="Adobe_OpacityMaskFilter_6_" filterUnits="userSpaceOnUse" x="67.9" y="23" width="46.2" height="11.3">
					<feColorMatrix  type="matrix" values="1 0 0 0 0  0 1 0 0 0  0 0 1 0 0  0 0 0 1 0"/>
				</filter>
			</defs>
			<mask maskUnits="userSpaceOnUse" x="67.9" y="23" width="46.2" height="11.3" id="mask-2_6_">
				<g class="st20">
					<path id="path-1_8_" class="st4" d="M16,0h76c8.8,0,16,7.2,16,16v76c0,8.8-7.2,16-16,16H16c-8.8,0-16-7.2-16-16V16
						C0,7.2,7.2,0,16,0z"/>
				</g>
			</mask>
			<g id="Group-28" class="st21">
				<g transform="translate(67.884341, 23.000000)">
					
						<linearGradient id="Fill-6_4_" gradientUnits="userSpaceOnUse" x1="-158.7341" y1="291.5139" x2="-157.8157" y2="291.5428" gradientTransform="matrix(-46.2 0 0 -11.2661 -7290.8564 3290.0242)">
						<stop  offset="0" style="stop-color:#442F2F"/>
						<stop  offset="1" style="stop-color:#26213B"/>
					</linearGradient>
					<path id="Fill-6_1_" class="st22" d="M0,11.3V4.6C0,2.1,1.8,0,4.1,0h38.1c2.2,0,4.1,2.1,4.1,4.6v2c0,2.5-1.8,4.6-4.1,4.6H0z"/>
					
						<linearGradient id="Fill-7_3_" gradientUnits="userSpaceOnUse" x1="-153.2781" y1="209.849" x2="-152.3597" y2="209.8528" gradientTransform="matrix(25.2164 0 0 -2.2135 3875.7705 468.8373)">
						<stop  offset="0" style="stop-color:#442F2F"/>
						<stop  offset="1" style="stop-color:#26213B"/>
					</linearGradient>
					<path id="Fill-7" class="st23" d="M9.8,5.4h23c0.6,0,1.1-0.5,1.1-1.1s-0.5-1.1-1.1-1.1h-23c-0.6,0-1.1,0.5-1.1,1.1
						S9.2,5.4,9.8,5.4z"/>
					
						<linearGradient id="Fill-8_4_" gradientUnits="userSpaceOnUse" x1="-151.1654" y1="209.8463" x2="-150.247" y2="209.8559" gradientTransform="matrix(15.7741 0 0 -2.2135 2394.4219 472.1313)">
						<stop  offset="0" style="stop-color:#442F2F"/>
						<stop  offset="1" style="stop-color:#26213B"/>
					</linearGradient>
					<path id="Fill-8_1_" class="st24" d="M9.8,8.7h13.6c0.6,0,1.1-0.5,1.1-1.1S24,6.5,23.4,6.5H9.8C9.2,6.5,8.7,7,8.7,7.6
						S9.2,8.7,9.8,8.7z"/>
				</g>
			</g>
			<defs>
				<filter id="Adobe_OpacityMaskFilter_7_" filterUnits="userSpaceOnUse" x="67.9" y="61.4" width="46.2" height="11.3">
					<feColorMatrix  type="matrix" values="1 0 0 0 0  0 1 0 0 0  0 0 1 0 0  0 0 0 1 0"/>
				</filter>
			</defs>
			<mask maskUnits="userSpaceOnUse" x="67.9" y="61.4" width="46.2" height="11.3" id="mask-2_7_">
				<g class="st25">
					<path id="path-1_9_" class="st4" d="M16,0h76c8.8,0,16,7.2,16,16v76c0,8.8-7.2,16-16,16H16c-8.8,0-16-7.2-16-16V16
						C0,7.2,7.2,0,16,0z"/>
				</g>
			</mask>
			<g id="Group-28_1_" class="st26">
				<g transform="translate(67.884341, 61.399999)">
					
						<linearGradient id="Fill-6_5_" gradientUnits="userSpaceOnUse" x1="-158.7341" y1="253.1139" x2="-157.8157" y2="253.1428" gradientTransform="matrix(-46.2 0 0 -11.2661 -7290.8564 2857.4058)">
						<stop  offset="0" style="stop-color:#442F2F"/>
						<stop  offset="1" style="stop-color:#26213B"/>
					</linearGradient>
					<path id="Fill-6_2_" class="st27" d="M0,11.3V4.6C0,2.1,1.8,0,4.1,0h38.1c2.2,0,4.1,2.1,4.1,4.6v2c0,2.5-1.8,4.6-4.1,4.6H0z"/>
					
						<linearGradient id="Fill-7_4_" gradientUnits="userSpaceOnUse" x1="-153.2781" y1="171.449" x2="-152.3597" y2="171.4528" gradientTransform="matrix(25.2164 0 0 -2.2135 3875.7705 383.8392)">
						<stop  offset="0" style="stop-color:#442F2F"/>
						<stop  offset="1" style="stop-color:#26213B"/>
					</linearGradient>
					<path id="Fill-7_1_" class="st28" d="M9.8,5.4h23c0.6,0,1.1-0.5,1.1-1.1s-0.5-1.1-1.1-1.1h-23c-0.6,0-1.1,0.5-1.1,1.1
						S9.2,5.4,9.8,5.4z"/>
					
						<linearGradient id="Fill-8_5_" gradientUnits="userSpaceOnUse" x1="-151.1654" y1="171.4463" x2="-150.247" y2="171.4559" gradientTransform="matrix(15.7741 0 0 -2.2135 2394.4219 387.1332)">
						<stop  offset="0" style="stop-color:#442F2F"/>
						<stop  offset="1" style="stop-color:#26213B"/>
					</linearGradient>
					<path id="Fill-8_2_" class="st29" d="M9.8,8.7h13.6c0.6,0,1.1-0.5,1.1-1.1S24,6.5,23.4,6.5H9.8C9.2,6.5,8.7,7,8.7,7.6
						S9.2,8.7,9.8,8.7z"/>
				</g>
			</g>
			<defs>
				<filter id="Adobe_OpacityMaskFilter_8_" filterUnits="userSpaceOnUse" x="67.9" y="76" width="46.2" height="11.3">
					<feColorMatrix  type="matrix" values="1 0 0 0 0  0 1 0 0 0  0 0 1 0 0  0 0 0 1 0"/>
				</filter>
			</defs>
			<mask maskUnits="userSpaceOnUse" x="67.9" y="76" width="46.2" height="11.3" id="mask-2_8_">
				<g class="st30">
					<path id="path-1_10_" class="st4" d="M16,0h76c8.8,0,16,7.2,16,16v76c0,8.8-7.2,16-16,16H16c-8.8,0-16-7.2-16-16V16
						C0,7.2,7.2,0,16,0z"/>
				</g>
			</mask>
			<g id="Group-28_2_" class="st31">
				<g transform="translate(67.884341, 75.999999)">
					
						<linearGradient id="Fill-6_6_" gradientUnits="userSpaceOnUse" x1="-158.7341" y1="238.5139" x2="-157.8157" y2="238.5428" gradientTransform="matrix(-46.2 0 0 -11.2661 -7290.8564 2692.9207)">
						<stop  offset="0" style="stop-color:#442F2F"/>
						<stop  offset="1" style="stop-color:#26213B"/>
					</linearGradient>
					<path id="Fill-6_3_" class="st32" d="M0,11.3V4.6C0,2.1,1.8,0,4.1,0h38.1c2.2,0,4.1,2.1,4.1,4.6v2c0,2.5-1.8,4.6-4.1,4.6H0z"/>
					
						<linearGradient id="Fill-7_5_" gradientUnits="userSpaceOnUse" x1="-153.2781" y1="156.849" x2="-152.3597" y2="156.8528" gradientTransform="matrix(25.2164 0 0 -2.2135 3875.7705 351.5222)">
						<stop  offset="0" style="stop-color:#442F2F"/>
						<stop  offset="1" style="stop-color:#26213B"/>
					</linearGradient>
					<path id="Fill-7_2_" class="st33" d="M9.8,5.4h23c0.6,0,1.1-0.5,1.1-1.1s-0.5-1.1-1.1-1.1h-23c-0.6,0-1.1,0.5-1.1,1.1
						S9.2,5.4,9.8,5.4z"/>
					
						<linearGradient id="Fill-8_6_" gradientUnits="userSpaceOnUse" x1="-151.1654" y1="156.8463" x2="-150.247" y2="156.8559" gradientTransform="matrix(15.7741 0 0 -2.2135 2394.4219 354.8162)">
						<stop  offset="0" style="stop-color:#442F2F"/>
						<stop  offset="1" style="stop-color:#26213B"/>
					</linearGradient>
					<path id="Fill-8_3_" class="st34" d="M9.8,8.7h13.6c0.6,0,1.1-0.5,1.1-1.1S24,6.5,23.4,6.5H9.8C9.2,6.5,8.7,7,8.7,7.6
						S9.2,8.7,9.8,8.7z"/>
				</g>
			</g>
			<defs>
				<filter id="Adobe_OpacityMaskFilter_9_" filterUnits="userSpaceOnUse" x="29" y="13" width="34.1" height="22">
					<feColorMatrix  type="matrix" values="1 0 0 0 0  0 1 0 0 0  0 0 1 0 0  0 0 0 1 0"/>
				</filter>
			</defs>
			<mask maskUnits="userSpaceOnUse" x="29" y="13" width="34.1" height="22" id="mask-2_9_">
				<g class="st35">
					<path id="path-1_11_" class="st4" d="M16,0h76c8.8,0,16,7.2,16,16v76c0,8.8-7.2,16-16,16H16c-8.8,0-16-7.2-16-16V16
						C0,7.2,7.2,0,16,0z"/>
				</g>
			</mask>
			<g id="Group-10" class="st36">
				<g transform="translate(29.000000, 13.000000)">
					<path id="Rectangle" class="st37" d="M3.6,0h26.9c1.3,0,1.7,0.1,2.2,0.4s0.8,0.6,1.1,1.1s0.4,0.9,0.4,2.2v14.8
						c0,1.3-0.1,1.7-0.4,2.2c-0.2,0.5-0.6,0.8-1.1,1.1S31.7,22,30.5,22H3.6c-1.3,0-1.7-0.1-2.2-0.4S0.6,21,0.4,20.6
						C0.1,20.1,0,19.6,0,18.4V3.6c0-1.3,0.1-1.7,0.4-2.2S1,0.6,1.4,0.4S2.4,0,3.6,0z"/>
					<path id="NEW" class="st19" d="M6.5,14.6v-2.3c0-1.4,0-2.9-0.1-3.6h0c0.4,0.9,2.3,4.4,3.1,5.9h1.9V7H10l0,2.9
						c0,1,0,2.1,0.1,2.7h0C9.7,11.8,8,8.7,7,7H5v7.6H6.5z M18.7,14.6l0.2-1.3h-4v-1.9h3.6V10h-3.6V8.3h3.8V7h-5.4v7.6H18.7z
						 M23.2,14.6c0.4-1.5,1.1-4.1,1.4-5.4h0c0.3,1.3,0.9,3.8,1.3,5.4h1.7l2-7.6h-1.6c-0.3,1.2-1,4.1-1.3,5.8h0
						c-0.3-1.4-1-4.3-1.4-5.8H24c-0.4,1.8-1.2,4.5-1.5,5.9h0c-0.1-0.8-0.4-2.4-1.1-5.9h-1.7l1.9,7.6H23.2z"/>
				</g>
			</g>
			<defs>
				<filter id="Adobe_OpacityMaskFilter_10_" filterUnits="userSpaceOnUse" x="22.2" y="5.1" width="12.8" height="12.3">
					<feColorMatrix  type="matrix" values="1 0 0 0 0  0 1 0 0 0  0 0 1 0 0  0 0 0 1 0"/>
				</filter>
			</defs>
			<mask maskUnits="userSpaceOnUse" x="22.2" y="5.1" width="12.8" height="12.3" id="mask-2_10_">
				<g class="st38">
					<path id="path-1_12_" class="st4" d="M16,0h76c8.8,0,16,7.2,16,16v76c0,8.8-7.2,16-16,16H16c-8.8,0-16-7.2-16-16V16
						C0,7.2,7.2,0,16,0z"/>
				</g>
			</mask>
			<path id="Fill-3_1_" class="st39" d="M25.7,5.1c-0.7,1.3-1.6,2.2-3.5,2.8c2.7,4.1,4.9,6.3,8.4,9.4c2.6-1.2,3.7-2.4,4.4-3.4
				C30.6,11.5,28.5,9.1,25.7,5.1"/>
			<defs>
				<filter id="Adobe_OpacityMaskFilter_11_" filterUnits="userSpaceOnUse">
					<feColorMatrix  type="matrix" values="1 0 0 0 0  0 1 0 0 0  0 0 1 0 0  0 0 0 1 0"/>
				</filter>
			</defs>
			<mask maskUnits="userSpaceOnUse" id="mask-2_11_">
				<g class="st40">
					<path id="path-1_13_" class="st4" d="M16,0h76c8.8,0,16,7.2,16,16v76c0,8.8-7.2,16-16,16H16c-8.8,0-16-7.2-16-16V16
						C0,7.2,7.2,0,16,0z"/>
				</g>
			</mask>
			<g id="Group-5" class="st41">
				<g transform="translate(97.000000, 84.837000)">
					<g id="Clip-4">
					</g>
				</g>
			</g>
		</g>
	</g>
</g>
</svg>
