<?xml version="1.0" encoding="utf-8"?>
<!-- Generator: Adobe Illustrator 24.1.3, SVG Export Plug-In . SVG Version: 6.00 Build 0)  -->
<svg version="1.0" id="Layer_1" xmlns="http://www.w3.org/2000/svg" xmlns:xlink="http://www.w3.org/1999/xlink" x="0px" y="0px"
	 viewBox="0 0 120 145" style="enable-background:new 0 0 120 145;" xml:space="preserve">
<style type="text/css">
	.st0{fill-rule:evenodd;clip-rule:evenodd;fill:#F3E3CD;}
	.st1{filter:url(#Adobe_OpacityMaskFilter);}
	.st2{fill-rule:evenodd;clip-rule:evenodd;fill:#FFFFFF;}
	.st3{mask:url(#mask-2_1_);}
	.st4{fill-rule:evenodd;clip-rule:evenodd;}
	.st5{filter:url(#Adobe_OpacityMaskFilter_1_);}
	.st6{mask:url(#mask-2_2_);fill-rule:evenodd;clip-rule:evenodd;fill:#F0F3F9;}
	.st7{filter:url(#Adobe_OpacityMaskFilter_2_);}
	.st8{mask:url(#mask-2_3_);fill-rule:evenodd;clip-rule:evenodd;fill:#F0F3F9;}
	.st9{filter:url(#Adobe_OpacityMaskFilter_3_);}
	.st10{mask:url(#mask-2_4_);}
	.st11{opacity:0.1;}
	.st12{fill-rule:evenodd;clip-rule:evenodd;fill:#6B8CC9;}
	.st13{fill-rule:evenodd;clip-rule:evenodd;fill:#FEBD60;}
	.st14{filter:url(#Adobe_OpacityMaskFilter_4_);}
	.st15{mask:url(#mask-2_5_);fill-rule:evenodd;clip-rule:evenodd;fill:#25BA74;}
	.st16{filter:url(#Adobe_OpacityMaskFilter_5_);}
	.st17{mask:url(#mask-2_6_);fill:none;stroke:#FFFFFF;stroke-width:3;stroke-linecap:round;stroke-linejoin:round;}
	.st18{fill-rule:evenodd;clip-rule:evenodd;fill:#FABA5F;fill-opacity:0.1;}
	.st19{opacity:0.4;fill-rule:evenodd;clip-rule:evenodd;fill:#FEBD60;enable-background:new    ;}
</style>
<g id="Test-Series-web">
	<g id="Home_Test-Series_Exam-Copy-6" transform="translate(-601.000000, -1182.000000)">
		<g id="Group-2" transform="translate(601.000000, 1182.000000)">
			<g id="Mask">
				<path id="path-1_1_" class="st0" d="M22.9,0h74.3C109.8,0,120,10.2,120,22.9v99.3c0,12.6-10.2,22.9-22.9,22.9H22.9
					C10.2,145,0,134.8,0,122.1V22.9C0,10.2,10.2,0,22.9,0z"/>
			</g>
			<defs>
				<filter id="Adobe_OpacityMaskFilter" filterUnits="userSpaceOnUse" x="-17" y="19" width="103" height="108">
					<feColorMatrix  type="matrix" values="1 0 0 0 0  0 1 0 0 0  0 0 1 0 0  0 0 0 1 0"/>
				</filter>
			</defs>
			<mask maskUnits="userSpaceOnUse" x="-17" y="19" width="103" height="108" id="mask-2_1_">
				<g class="st1">
					<path id="path-1_2_" class="st2" d="M22.9,0h74.3C109.8,0,120,10.2,120,22.9v99.3c0,12.6-10.2,22.9-22.9,22.9H22.9
						C10.2,145,0,134.8,0,122.1V22.9C0,10.2,10.2,0,22.9,0z"/>
				</g>
			</mask>
			<g id="Mask_1_" class="st3">
				<g>
					<path id="path-3" class="st4" d="M-1.6,19h72.2c5.3,0,7.3,0.6,9.2,1.6c2,1,3.5,2.6,4.5,4.5c1,2,1.6,3.9,1.6,9.2v77.2
						c0,5.3-0.6,7.3-1.6,9.2c-1,2-2.6,3.5-4.5,4.5c-2,1-3.9,1.6-9.2,1.6H-1.6c-5.3,0-7.3-0.6-9.2-1.6c-2-1-3.5-2.6-4.5-4.5
						c-1-2-1.6-3.9-1.6-9.2V34.4c0-5.3,0.6-7.3,1.6-9.2s2.6-3.5,4.5-4.5S-7,19-1.6,19z"/>
				</g>
				<g>
					<path id="path-3_1_" class="st2" d="M-1.6,19h72.2c5.3,0,7.3,0.6,9.2,1.6c2,1,3.5,2.6,4.5,4.5c1,2,1.6,3.9,1.6,9.2v77.2
						c0,5.3-0.6,7.3-1.6,9.2c-1,2-2.6,3.5-4.5,4.5c-2,1-3.9,1.6-9.2,1.6H-1.6c-5.3,0-7.3-0.6-9.2-1.6c-2-1-3.5-2.6-4.5-4.5
						c-1-2-1.6-3.9-1.6-9.2V34.4c0-5.3,0.6-7.3,1.6-9.2s2.6-3.5,4.5-4.5S-7,19-1.6,19z"/>
				</g>
			</g>
			<defs>
				<filter id="Adobe_OpacityMaskFilter_1_" filterUnits="userSpaceOnUse" x="12" y="107" width="36" height="3">
					<feColorMatrix  type="matrix" values="1 0 0 0 0  0 1 0 0 0  0 0 1 0 0  0 0 0 1 0"/>
				</filter>
			</defs>
			<mask maskUnits="userSpaceOnUse" x="12" y="107" width="36" height="3" id="mask-2_2_">
				<g class="st5">
					<path id="path-1_3_" class="st2" d="M22.9,0h74.3C109.8,0,120,10.2,120,22.9v99.3c0,12.6-10.2,22.9-22.9,22.9H22.9
						C10.2,145,0,134.8,0,122.1V22.9C0,10.2,10.2,0,22.9,0z"/>
				</g>
			</mask>
			<path id="Fill-11" class="st6" d="M13.5,110h33c0.8,0,1.5-0.7,1.5-1.5s-0.7-1.5-1.5-1.5h-33c-0.8,0-1.5,0.7-1.5,1.5
				S12.7,110,13.5,110z"/>
			<defs>
				<filter id="Adobe_OpacityMaskFilter_2_" filterUnits="userSpaceOnUse" x="12" y="113" width="27" height="3">
					<feColorMatrix  type="matrix" values="1 0 0 0 0  0 1 0 0 0  0 0 1 0 0  0 0 0 1 0"/>
				</filter>
			</defs>
			<mask maskUnits="userSpaceOnUse" x="12" y="113" width="27" height="3" id="mask-2_3_">
				<g class="st7">
					<path id="path-1_4_" class="st2" d="M22.9,0h74.3C109.8,0,120,10.2,120,22.9v99.3c0,12.6-10.2,22.9-22.9,22.9H22.9
						C10.2,145,0,134.8,0,122.1V22.9C0,10.2,10.2,0,22.9,0z"/>
				</g>
			</mask>
			<path id="Fill-12" class="st8" d="M13.5,116h24c0.8,0,1.5-0.7,1.5-1.5s-0.7-1.5-1.5-1.5h-24c-0.8,0-1.5,0.7-1.5,1.5
				S12.7,116,13.5,116z"/>
			<defs>
				<filter id="Adobe_OpacityMaskFilter_3_" filterUnits="userSpaceOnUse" x="12" y="30.1" width="18.7" height="18.7">
					<feColorMatrix  type="matrix" values="1 0 0 0 0  0 1 0 0 0  0 0 1 0 0  0 0 0 1 0"/>
				</filter>
			</defs>
			<mask maskUnits="userSpaceOnUse" x="12" y="30.1" width="18.7" height="18.7" id="mask-2_4_">
				<g class="st9">
					<path id="path-1_5_" class="st2" d="M22.9,0h74.3C109.8,0,120,10.2,120,22.9v99.3c0,12.6-10.2,22.9-22.9,22.9H22.9
						C10.2,145,0,134.8,0,122.1V22.9C0,10.2,10.2,0,22.9,0z"/>
				</g>
			</mask>
			<g id="Group-6" class="st10">
				<g transform="translate(12.000000, 29.000000)">
					<g id="Group-3" transform="translate(0.000000, 0.715529)" class="st11">
						<path id="Fill-1" class="st12" d="M9.3,5C6.8,5,4.7,7.1,4.7,9.7c0,2.6,2.1,4.7,4.7,4.7c2.6,0,4.7-2.1,4.7-4.7
							C14,7.1,11.9,5,9.3,5 M9.3,19C4.2,19,0,14.8,0,9.7c0-5.2,4.2-9.3,9.3-9.3s9.3,4.2,9.3,9.3C18.7,14.8,14.5,19,9.3,19"/>
					</g>
					<path id="Fill-4" class="st13" d="M18.7,10.4H14c0-2.6-2.1-4.7-4.7-4.7V1.1C14.5,1.1,18.7,5.3,18.7,10.4"/>
				</g>
			</g>
			<defs>
				<filter id="Adobe_OpacityMaskFilter_4_" filterUnits="userSpaceOnUse" x="61" y="16" width="42" height="28">
					<feColorMatrix  type="matrix" values="1 0 0 0 0  0 1 0 0 0  0 0 1 0 0  0 0 0 1 0"/>
				</filter>
			</defs>
			<mask maskUnits="userSpaceOnUse" x="61" y="16" width="42" height="28" id="mask-2_5_">
				<g class="st14">
					<path id="path-1_6_" class="st2" d="M22.9,0h74.3C109.8,0,120,10.2,120,22.9v99.3c0,12.6-10.2,22.9-22.9,22.9H22.9
						C10.2,145,0,134.8,0,122.1V22.9C0,10.2,10.2,0,22.9,0z"/>
				</g>
			</mask>
			<path id="Rectangle" class="st15" d="M67.9,16h28.3c2.4,0,3.3,0.2,4.1,0.7c0.9,0.5,1.6,1.2,2,2s0.7,1.7,0.7,4.1v14.3
				c0,2.4-0.2,3.3-0.7,4.1c-0.5,0.9-1.2,1.6-2,2S98.5,44,96.1,44H67.9c-2.4,0-3.3-0.2-4.1-0.7c-0.9-0.5-1.6-1.2-2-2
				c-0.5-0.9-0.7-1.7-0.7-4.1V22.9c0-2.4,0.2-3.3,0.7-4.1s1.2-1.6,2-2C64.6,16.2,65.5,16,67.9,16z"/>
			<defs>
				<filter id="Adobe_OpacityMaskFilter_5_" filterUnits="userSpaceOnUse" x="71.5" y="23.5" width="23" height="13">
					<feColorMatrix  type="matrix" values="1 0 0 0 0  0 1 0 0 0  0 0 1 0 0  0 0 0 1 0"/>
				</filter>
			</defs>
			<mask maskUnits="userSpaceOnUse" x="71.5" y="23.5" width="23" height="13" id="mask-2_6_">
				<g class="st16">
					<path id="path-1_7_" class="st2" d="M22.9,0h74.3C109.8,0,120,10.2,120,22.9v99.3c0,12.6-10.2,22.9-22.9,22.9H22.9
						C10.2,145,0,134.8,0,122.1V22.9C0,10.2,10.2,0,22.9,0z"/>
				</g>
			</mask>
			<polyline id="Stroke-1" class="st17" points="73,35 78,29.9 85.6,35 93,25 			"/>
			<g id="Group-11" transform="translate(12.000000, 59.000000)">
				<rect id="Rectangle_1_" class="st18" width="61" height="37"/>
				<rect id="Rectangle_2_" x="7" y="32" class="st13" width="9" height="5"/>
				<rect id="Rectangle-Copy-2" x="20" y="15" class="st19" width="9" height="22"/>
				<rect id="Rectangle-Copy-3" x="33" y="29" class="st13" width="9" height="8"/>
				<rect id="Rectangle-Copy-4" x="46" y="6" class="st13" width="9" height="31"/>
			</g>
		</g>
	</g>
</g>
</svg>
